# xmcd
# 
# Track frame offsets:
#     150
#     15811
#     31408
# 
# Disc length: 636
# 
# Revision: 1
# Processed by: cddbd v1.5.2PL0 Copyright (c) Steve Scherf et al.
# Submitted via: BonkEnc v1.0.15
# 
DISCID=12027a03
DTITLE=Framestar - Demo
DYEAR=0
DGENRE=Hardcore
TTITLE0=Intro
TTITLE1=Reality
TTITLE2=Lehrstück Für Die Jugend
EXTD=
EXTT0=
EXTT1=
EXTT2=
PLAYORDER=
